{"title":"Grudge.Match.2013.CAM.READNFO.XViD-ROCKY","uid":9447767,"size":937127965,"categoryP":"video","categoryS":"movies","magnet":"?xt=urn:btih:24c6364c04c1c9c3e8a717b7f5cbe6de2af14cac&amp;dn=Grudge.Match.2013.CAM.READNFO.XViD-ROCKY&amp;tr=udp%3A%2F%2Ftracker.openbittorrent.com%3A80&amp;tr=udp%3A%2F%2Fopen.demonii.com%3A1337&amp;tr=udp%3A%2F%2Ftracker.coppersurfer.tk%3A6969&amp;tr=udp%3A%2F%2Fexodus.desync.com%3A6969","seeders":3,"leechers":0,"uploader":"Acesn8s","files":-1,"time":1389122157,"description":"Grudge.Match.2013.CAM.READNFO.XViD-ROCKY\n\n**********************************************************************************\n\nSORS : AFRiEND :)\n\nVideo\nID                                       : 0\nFormat                                   : MPEG-4 Visual\nFormat profile                           : Advanced Simple@L5\nFormat settings, BVOP                    : 2\nFormat settings, QPel                    : No\nFormat settings, GMC                     : No warppoints\nFormat settings, Matrix                  : Default (MPEG)\nMuxing mode                              : Packed bitstream\nCodec ID                                 : XVID\nCodec ID/Hint                            : XviD\nDuration                                 : 1h 44mn\nBit rate                                 : 1 039 Kbps\nWidth                                    : 624 pixels\nHeight                                   : 336 pixels\nDisplay aspect ratio                     : 1.85:1\nFrame rate                               : 29.970 fps\nColor space                              : YUV\nChroma subsampling                       : 4:2:0\nBit depth                                : 8 bits\nScan type                                : Progressive\nCompression mode                         : Lossy\nBits/(Pixel*Frame)                       : 0.165\nStream size                              : 775 MiB (88%)\nWriting library                          : XviD 64\n\n**********************************************************************************\n\nAudio\nID                                       : 1\nFormat                                   : MPEG Audio\nFormat version                           : Version 1\nFormat profile                           : Layer 3\nMode                                     : Joint stereo\nCodec ID                                 : 55\nCodec ID/Hint                            : MP3\nDuration                                 : 1h 44mn\nBit rate mode                            : Constant\nBit rate                                 : 128 Kbps\nChannel(s)                               : 2 channels\nSampling rate                            : 48.0 KHz\nCompression mode                         : Lossy\nDelay relative to video                  : 16ms\nStream size                              : 95.5 MiB (11%)\nAlignment                                : Split accross interleaves\nInterleave, duration                     : 33 ms (1.00 video frame)\nInterleave, preload duration             : 500 ms\n\n**********************************************************************************\n\nActors :\n\nRobert De Niro, Sylvester Stallone, Kim Basinger\n\nPlot :\n\nA pair of aging boxing rivals are coaxed out of retirement to fight one final bout -- 30 years after their last match.\n\nIMDB :\n &lt;a href=&quot;\nhttp://www.imdb.com/title/tt1661382/&quot; rel=&quot;nofollow&quot; target=&quot;_NEW&quot;&gt;\nhttp://www.imdb.com/title/tt1661382/&lt;/a&gt;\n\n**********************************************************************************\n\nNOTES :\n\nSor had whacked perspective,some movement throughout and first few mins cam is covered up on the right handside....also had normal cam issues. Audio was ya normal cam audio ...\n\n\nFixed perspective best i could,but didn't want to pull it anymore,as it would result in losing more picture. Also it drifts slightly due to cam movement.\nFixed brightness,contrast,chroma,rgb levels,removed some noise and added some sharpness. Audio tweaked and remuxed.....\n\nEXTRA NOTES :  \n\nHappy New Year:)\n\n**********************************************************************************\n\nScreens:\n &lt;a href=&quot;\nhttp://s24.postimg.org/tced1d4f9/f2umg_Mc.png&quot; rel=&quot;nofollow&quot; target=&quot;_NEW&quot;&gt;\nhttp://s24.postimg.org/tced1d4f9/f2umg_Mc.png&lt;/a&gt;\n &lt;a href=&quot;\nhttp://s24.postimg.org/gz1iugeqt/g9_NUr_Lr.png&quot; rel=&quot;nofollow&quot; target=&quot;_NEW&quot;&gt;\nhttp://s24.postimg.org/gz1iugeqt/g9_NUr_Lr.png&lt;/a&gt;\n &lt;a href=&quot;\nhttp://s24.postimg.org/eizpglwo5/Tybgmi9.png&quot; rel=&quot;nofollow&quot; target=&quot;_NEW&quot;&gt;\nhttp://s24.postimg.org/eizpglwo5/Tybgmi9.png&lt;/a&gt;\n &lt;a href=&quot;\nhttp://s24.postimg.org/hm0fjzbmt/VNs_Do9o.png&quot; rel=&quot;nofollow&quot; target=&quot;_NEW&quot;&gt;\nhttp://s24.postimg.org/hm0fjzbmt/VNs_Do9o.png&lt;/a&gt;","torrent":{"xt":"urn:btih:24c6364c04c1c9c3e8a717b7f5cbe6de2af14cac","amp;dn":"Grudge.Match.2013.CAM.READNFO.XViD-ROCKY","amp;tr":["udp%3A%2F%2Ftracker.openbittorrent.com%3A80","udp%3A%2F%2Fopen.demonii.com%3A1337","udp%3A%2F%2Ftracker.coppersurfer.tk%3A6969","udp%3A%2F%2Fexodus.desync.com%3A6969"],"infoHash":"24c6364c04c1c9c3e8a717b7f5cbe6de2af14cac","infoHashBuffer":{"type":"Buffer","data":[36,198,54,76,4,193,201,195,232,167,23,183,245,203,230,222,42,241,76,172]},"announce":[],"urlList":[]}}